<?xml version="1.0" encoding="UTF-8"?>
<svg width="188px" height="23px" viewBox="0 0 188 23" version="1.1" xmlns="http://www.w3.org/2000/svg" xmlns:xlink="http://www.w3.org/1999/xlink">
    <!-- Generator: Sketch 64 (93537) - https://sketch.com -->
    <title>Group</title>
    <desc>Created with Sketch.</desc>
    <g id="Page-1" stroke="none" stroke-width="1" fill="none" fill-rule="evenodd">
        <g id="Artboard" transform="translate(-151.000000, -110.000000)">
            <g id="Group" transform="translate(151.000000, 110.000000)">
                <path d="M19.8,22 C15.99,22 13.98,19.6 13.98,16.6 C13.98,14.08 15.69,12.01 17.82,11.68 C15.93,11.29 14.37,9.61 14.37,7.09 C14.37,4.42 16.32,1.99 20.13,1.99 L30.66,1.99 L30.66,22 L19.8,22 Z M21.58,10 L26.92,10 L26.92,5.65 L21.58,5.65 C20.14,5.65 19.24,6.58 19.24,7.84 C19.24,9.1 20.14,10 21.58,10 Z M21.82,18.31 L27.31,18.31 L27.31,13.66 L21.82,13.66 C20.14,13.66 19.24,14.74 19.24,16 C19.24,17.44 20.2,18.31 21.82,18.31 Z M43.35,21.36 C49.41,21.36 53.82,17.04 53.82,11.01 C53.82,4.98 49.41,0.66 43.35,0.66 C37.32,0.66 32.91,4.98 32.91,11.01 C32.91,17.04 37.32,21.36 43.35,21.36 Z M43.35,17.58 C39.66,17.58 37.29,14.73 37.29,11.01 C37.29,7.26 39.66,4.44 43.35,4.44 C47.04,4.44 49.44,7.26 49.44,11.01 C49.44,14.73 47.04,17.58 43.35,17.58 Z M66.3,21.36 C72.36,21.36 76.77,17.04 76.77,11.01 C76.77,4.98 72.36,0.66 66.3,0.66 C60.27,0.66 55.86,4.98 55.86,11.01 C55.86,17.04 60.27,21.36 66.3,21.36 Z M66.3,17.58 C62.61,17.58 60.24,14.73 60.24,11.01 C60.24,7.26 62.61,4.44 66.3,4.44 C69.99,4.44 72.39,7.26 72.39,11.01 C72.39,14.73 69.99,17.58 66.3,17.58 Z M92.49,21 L92.49,17.25 L84.03,17.25 L84.03,0.99 L79.77,0.99 L79.77,21 L92.49,21 Z M99.72,21 L99.72,12.72 L109.41,12.72 L109.41,8.97 L99.72,8.97 L99.72,4.74 L109.62,4.74 L109.62,0.99 L95.46,0.99 L95.46,21 L99.72,21 Z M125.31,21 L125.31,17.25 L116.85,17.25 L116.85,0.99 L112.59,0.99 L112.59,21 L125.31,21 Z M132.54,21 L132.54,0.99 L128.28,0.99 L128.28,21 L132.54,21 Z M139.5,21 L144.54,13.68 L149.55,21 L154.65,21 L147.39,10.71 L154.2,0.99 L149.07,0.99 L144.54,7.83 L139.95,0.99 L134.88,0.99 L141.69,10.74 L134.43,21 L139.5,21 Z" id="BOOLFLIX" fill="#FF0000" fill-rule="nonzero"></path>
                <path d="M0,23 C55.4659131,17.6666667 118.13258,17.6666667 188,23" id="Path" fill="#000000"></path>
            </g>
        </g>
    </g>
</svg>